PathFileType	4	(X/Y/Z)	pose_F01_0-89.trc
DataRate	CameraRate	NumFrames	NumMarkers	Units	OrigDataRate	OrigDataStartFrame	OrigNumFrames
30	30	5	21	m	30	77	89
Frame#	Time	CHip			RHip			RKnee			RAnkle			RBigToe			RSmallToe			RHeel			LHip			LKnee			LAnkle			LBigToe			LSmallToe			LHeel			Neck			Nose			RShoulder			RElbow			RWrist			LShoulder			LElbow			LWrist			
		X1	Y1	Z1	X2	Y2	Z2	X3	Y3	Z3	X4	Y4	Z4	X5	Y5	Z5	X6	Y6	Z6	X7	Y7	Z7	X8	Y8	Z8	X9	Y9	Z9	X10	Y10	Z10	X11	Y11	Z11	X12	Y12	Z12	X13	Y13	Z13	X14	Y14	Z14	X15	Y15	Z15	X16	Y16	Z16	X17	Y17	Z17	X18	Y18	Z18	X19	Y19	Z19	X20	Y20	Z20	X21	Y21	Z21	
77	2.566666666666667	-0.1601382488090254	1.826282633503443	-0.4124189704595384	-0.17333604369510136	1.8234501522717192	-0.35975774958676715	-0.16735679338353493	1.7032016366510994	-0.34898112223251926	-0.1386595059106739	1.5918363481486903	-0.4382012344406454	-0.17072732978930155	1.5590914292446514	-0.4666414776873215	-0.16274012219583808	1.566098699203062	-0.4444505054024301	-0.13370278400103763	1.5895302720713307	-0.43910491663149737	-0.14582975197894787	1.8272421199152835	-0.46511931981981003	-0.14071910530242715	1.7064113344262772	-0.41822431972608315	-0.14239786328409898	1.590243012496264	-0.4525835628124292	-0.1855388992678773	1.55013136822768	-0.4908776060278494	-0.15665592766031047	1.568047006270159	-0.4569773461503432	-0.13070881159149048	1.5746607010787372	-0.4498357584958	-0.1552923432724808	1.9708490918765766	-0.4368473735966762	-0.1764175430343026	2.0371963993917577	-0.4717327194487832	-0.17426173501195533	1.96682882578044	-0.35178133192295497	-0.1852206806117249	1.8880984065418074	-0.31924069990770165	-0.19521282501888645	1.8182123264399468	-0.31313687825338266	-0.13053742126648774	1.9721037955730807	-0.5087886169117541	-0.12242497879109795	1.896163021586546	-0.5315843177152615	-0.12449951039628203	1.826931167298722	-0.5334971805852384
78	2.6	-0.16186730006030783	1.8278703551487825	-0.41947660475177495	-0.17437366668364598	1.8278191921758773	-0.3726774570162852	-0.16735679338353493	1.7032016366510994	-0.34898112223251926	-0.1386595059106739	1.5918363481486903	-0.4382012344406454	-0.17072732978930155	1.5590914292446514	-0.4666414776873215	-0.16274012219583808	1.566098699203062	-0.4444505054024301	-0.13370278400103763	1.5895302720713307	-0.43910491663149737	-0.14273886383957582	1.8293202497561591	-0.4733779911689651	-0.14267488066908968	1.7101879551797379	-0.43455987551264413	-0.14239786328409898	1.590243012496264	-0.4525835628124292	-0.1855388992678773	1.55013136822768	-0.4908776060278494	-0.1565337155238991	1.5703905537596083	-0.4572339279948625	-0.13070881159149048	1.5746607010787372	-0.4498357584958	-0.1534118283046319	1.9709924998895532	-0.4394503840241781	-0.17821156872350738	2.037873827636459	-0.48677400752045935	-0.17331860366577012	1.9681155966517871	-0.3574576045063826	-0.18077332001162505	1.8873188995181123	-0.32903040520881316	-0.19942077411153858	1.8202184511839843	-0.3331948336983496	-0.12829540392543515	1.974962929251379	-0.520445350664332	-0.12055719981552177	1.8955023100548534	-0.5342847104266947	-0.12324974378089901	1.8266850586179972	-0.5480984225020432
79	2.6333333333333333	-0.16244765684222057	1.830167659865192	-0.43214375782480396	-0.1770756634016365	1.8287250979568013	-0.38315963848852314	-0.16735679338353493	1.7032016366510994	-0.34898112223251926	-0.1386595059106739	1.5918363481486903	-0.4382012344406454	-0.17072732978930155	1.5590914292446514	-0.4666414776873215	-0.16274012219583808	1.566098699203062	-0.4444505054024301	-0.13370278400103763	1.5895302720713307	-0.43910491663149737	-0.14230199086556067	1.83053265462646	-0.4823798453992636	-0.1435584933778894	1.7093488705094766	-0.4379485434663717	-0.14239786328409898	1.590243012496264	-0.4525835628124292	-0.1855388992678773	1.55013136822768	-0.4908776060278494	-0.15476945622935268	1.5719472428195016	-0.4593544042425827	-0.13070881159149048	1.5746607010787372	-0.4498357584958	-0.15227975172349198	1.9723567089290108	-0.44506458052088216	-0.17913845554760865	2.039347239210911	-0.49058559252409933	-0.1753611516801666	1.971226987021895	-0.373570849314363	-0.18301854740933193	1.888117988085695	-0.34493895487261367	-0.20166531432341503	1.8208964284771083	-0.34897854211374263	-0.13073938199533588	1.9742007489639415	-0.5298010737879953	-0.11830210922740222	1.89596310549223	-0.5366256170190199	-0.12256946308684763	1.825714724402992	-0.5569690290754654
80	2.6666666666666665	-0.16357843605467437	1.83048475454051	-0.43563214720800103	-0.1772177425382618	1.8293033234363236	-0.3833412944849837	-0.16735679338353493	1.7032016366510994	-0.34898112223251926	-0.1386595059106739	1.5918363481486903	-0.4382012344406454	-0.17072732978930155	1.5590914292446514	-0.4666414776873215	-0.16274012219583808	1.566098699203062	-0.4444505054024301	-0.13370278400103763	1.5895302720713307	-0.43910491663149737	-0.14822528098456303	1.830767228546365	-0.4848416639337979	-0.14454731263446488	1.7093259475311071	-0.4413184827658279	-0.14239786328409898	1.590243012496264	-0.4525835628124292	-0.1855388992678773	1.55013136822768	-0.4908776060278494	-0.154737037711228	1.5713625996761187	-0.45944968660366153	-0.13070881159149048	1.5746607010787372	-0.4498357584958	-0.1512698761780964	1.9725601427587243	-0.4505597475961943	-0.17719644583595598	2.040544697717781	-0.49286582050747074	-0.1745118100018435	1.9714589554481072	-0.3789887756857219	-0.18369956019950012	1.8921924178376441	-0.34885029903606585	-0.20267474455216888	1.8282659566480859	-0.3481080121770323	-0.12961742919764763	1.9743139579493925	-0.5353792507309738	-0.12133418729007528	1.894496560055955	-0.5373939653640283	-0.12487297111022923	1.8240540782419266	-0.5544388426355372
81	2.7	-0.1647816639132814	1.8278438092419875	-0.4385718479598034	-0.17829682874787475	1.827800799724321	-0.38652189276260945	-0.18420382879775604	1.7071345753746676	-0.38633493543351494	-0.1386595059106739	1.5918363481486903	-0.4382012344406454	-0.17072732978930155	1.5590914292446514	-0.4666414776873215	-0.16274012219583808	1.566098699203062	-0.4444505054024301	-0.13370278400103763	1.5895302720713307	-0.43910491663149737	-0.1473524808890247	1.8292689445612866	-0.4901870244412443	-0.14310916945401297	1.7105202712018595	-0.4432412932173189	-0.14239786328409898	1.590243012496264	-0.4525835628124292	-0.1855388992678773	1.55013136822768	-0.4908776060278494	-0.15742589832412224	1.5851184695320233	-0.4560772293151241	-0.13070881159149048	1.5746607010787372	-0.4498357584958	-0.15391165254118155	1.974166787377157	-0.46040944362205016	-0.17808184026870053	2.0419947981184117	-0.4966031349077283	-0.17536656116890453	1.9727533916649478	-0.382416964893394	-0.185791237493063	1.892138054412846	-0.35570077702215236	-0.20532510360692116	1.8272913824761174	-0.35470474179483846	-0.13044222144136672	1.9766055911830707	-0.5390269934912049	-0.12014009838515324	1.8947491426474645	-0.5429793715052512	-0.12912605067281688	1.8227163274415075	-0.549628130472298
